<?xml version="1.0" encoding="utf-8"?>
<!-- Generator: Adobe Illustrator 26.0.2, SVG Export Plug-In . SVG Version: 6.00 Build 0)  -->
<svg version="1.1" id="Livello_1" xmlns="http://www.w3.org/2000/svg" xmlns:xlink="http://www.w3.org/1999/xlink" x="0px" y="0px"
	 viewBox="0 0 360.6 362.5" style="enable-background:new 0 0 360.6 362.5;" xml:space="preserve">
<style type="text/css">
	.st0{fill:#050504;}
	.st1{fill:#E2E8E7;}
	.st2{fill:#13C0AB;}
	.st3{fill:#14C0AB;}
	.st4{fill:#FCA024;}
	.st5{fill:#FB9F25;}
	.st6{fill:#13BCA8;}
	.st7{fill:#FA9E26;}
	.st8{fill:#F2942B;}
	.st9{fill:#040908;}
	.st10{fill:#F1A028;}
</style>
<g>
	<path class="st0" d="M0.7,54.2c3.8-8.2,10.1-10.5,18.9-9.3c13.2,1.8,26.5,2.7,39.8,3.9c5.3,0.5,9.1,3.3,11.1,8.1
		c2.1,5.1,1.2,9.8-2.4,13.9c-1.3,1.4-1.5,2.5-0.7,4.2c3.4,7.6,6.8,15.2,10.1,22.9c0.7,1.7,1.6,2.4,3.6,2.4c15.7-0.5,31.4-1,47.1-1.3
		c2.9-0.1,3.5-0.8,3.2-3.7c-0.8-9.2-1.4-18.4-1.9-27.6c-0.3-5.7,2-8.6,7.6-9.6c3.3-0.6,6.6-1.2,10-1.5c2.1-0.2,2.5-0.8,2.1-3
		c-2.6-17.2,2.5-31.9,16-43c13.2-10.9,28.5-13.5,44.5-7.4c16.2,6.1,25.8,18.1,28.8,35.2c0.5,2.8,0.9,3.9,4.3,3.3
		c5.1-0.8,10.4-3.1,15.7-0.4c0.8,0.4,2.4-0.5,3.6-0.7c19.5-4.3,38.6,8.1,42.3,27.6c0.6,3.1,1.8,3.7,4.4,2.9c0.4-0.1,0.7-0.2,1.1-0.2
		c8.9-1.6,10.7-0.4,12.9,8.3c0.9,3.7,1.9,7.5,2.7,11.2c0.5,2.3,1.4,3.2,4,3.1c6-0.4,12-0.4,17.9-0.5c7.9-0.1,13.2,5.2,13.2,13
		c0,29.4,0,58.8,0,88.3c0,8.6-5.6,14.8-14.1,16.2c-11.2,1.8-22.4,3.7-33.7,5.5c0.5,1.5,1.1,2.8,1.4,4.3c1.6,7.6-2.9,14.2-10.9,15.5
		c-29.4,4.9-58.7,9.6-88.1,14.4c-10.7,1.8-21.4,3.4-32.1,5.3c-6.5,1.2-12.3,4.2-16.7,9.2c-5.6,6.2-9.7,13.4-14.9,20.6
		c1.9,0,3.2,0,4.6,0c55.4,0,110.7,0,166.1,0c7.6,0,12.6,3.8,13.9,10.4c1.4,7.6-4,14.6-11.8,15c-4.1,0.2-8.2,0-13.1,0
		c6.6,7,10.2,14.8,9.6,24s-4.8,16.7-12.2,22.1c-11.9,8.6-28.5,7.1-38.5-3.4c-11.3-11.8-11-27.3,1-42.5c-29.1,0-58,0-87.1,0
		c12.3,16.9,12,32.9-0.9,44.1c-11.5,10.1-28.8,9.8-39.8-0.6c-12.3-11.6-12.4-27.8,0.1-43.7c-2.8,0-5.4,0.1-8,0
		c-13.7-0.5-21.6-15.1-14.2-26.4c7.4-11.2,15.3-22.1,23-33.1c2.2-3.1,5.1-5.6,8.2-8.7c-4.1-0.4-7.8-0.4-11.4-1.7
		c-8.1-3-13.4-8.6-16.8-16.4c-21.2-48.7-42.4-97.3-63.5-146c-1-2.3-2.2-3.2-4.8-3.4c-13.8-1.1-27.5-2.7-41.3-3.8
		c-6.6-0.5-11-3.8-13.8-9.6C-0.1,59.2-0.3,56.7,0.7,54.2z M138.7,97.9c0.4,0.3,0.8,0.6,1.2,0.9c3.5,0.3,6.9,0.8,10.3-0.3
		c9.7-0.8,19.3-0.2,29-0.7c11.9-0.5,23.8-1.1,35.8-1c4.9,0,4.9,0,4.9-4.9c0-4.8,2.1-7.3,6.9-7.8c2-0.2,3.9-0.5,5.9-0.8
		c1.7-0.3,2.2-1.1,2.1-3c-0.1-3.3,0.4-7,0-9.4c0-5.2-0.5-10.5-1.3-16.5c-0.3-2-1-3.7-3.4-3.1c-4.7,1.1-9.4,1.6-14.1,2.4
		c-8.7,1.5-17.4,2.5-26.1,4.1c-10,2-20.1,3.1-30.2,4.5c-1.7,0.2-2,0.7-1.6,2.4c0.7,2.9,1.2,5.8,1.3,8.8c0.1,2.6-0.4,4.6-3.4,4.6
		c-2.8,0-3.7-2.2-4.1-4.4c-0.4-2.3-0.4-4.7-0.9-6.9c-0.3-1.6-0.5-3.4-3.3-2.4c-2.4,0.8-5.1,1-7.6,1c-2.7,0-3.5,1.1-3.3,3.6
		c0.7,9.2,1.2,18.4,1.8,27.6C138.3,97,138.2,97.5,138.7,97.9z M229.4,303.7c30.3,0,60.6,0,90.9,0c1.5,0,3,0,4.5-0.2
		c2.8-0.5,4.3-2.4,4.3-5.2c0-2.9-1.7-4.6-4.4-5.2c-1.2-0.3-2.5-0.1-3.7-0.1c-57.6,0-115.2,0-172.9,0c-1.1,0-2.2,0.1-3.4,0
		c-3.4-0.2-5-2.9-3.1-5.7c6-8.7,11.4-17.8,18.2-26c7.5-9,17.8-12.3,29.1-14.1c37.5-5.9,75-12.3,112.5-18.5c4.1-0.7,6.4-3.1,5.9-6.3
		c-0.5-3.4-3-4.9-7.4-4.2c-12.6,2-25.3,4.1-37.9,6.2c-25.4,4.2-50.7,8.6-76.1,12.4c-14.7,2.2-27.2,7.9-36.2,19.9
		c-7.6,10.3-14.7,21-22,31.5c-1.4,2.1-2.2,4.4-1.7,7c1.1,5.8,4.8,8.5,12.1,8.5C168.6,303.7,199,303.7,229.4,303.7z M160.9,233.6
		c-2-5.7-2-5.7-7.7-5.1c-8,0.9-13.6-3.7-14.2-11.6c-0.5-7.4-0.9-14.9-1.5-22.4c-0.6-6.3,0.6-13.1-1.8-18.9
		c-9.2-22.4-19.1-44.5-28.8-66.7c-0.6-1.3-1.3-1.9-2.8-1.8c-6.6,0.2-13.2,0.3-19.8,0.4c-2.2,0-2.6,0.6-1.6,2.6
		c2.4,5.3,4.7,10.7,7,16.1c13.8,31.8,27.6,63.6,41.3,95.4c3.3,7.7,8.8,12.6,17.2,13.6C152.4,235.7,156.5,234.3,160.9,233.6z
		 M194,7.4c-2.4,0.2-4.7,0.3-7,0.8c-20.9,4.3-33.5,22.5-30.6,44c0.4,2.8,1.6,3.1,3.9,2.7c7.6-1.3,15.2-2.4,22.9-3.6
		c15.5-2.4,31-4.9,46.5-7.3c1.5-0.2,2.4-0.4,2.2-2.4C229.9,22.4,213.4,7.6,194,7.4z M157.3,105.8c-4.2,0-7.2,0.1-10.2,0
		c-2.4-0.1-2.7,0.7-1.8,2.8c14.9,34,29.7,68.1,44.4,102.2c1.5,3.5,3.6,3.9,6.6,3.4c4.1-0.7,8.2-1.8,12.4-2c3.6-0.2,3.5-1.5,2.3-4.1
		c-4-8.8-8-17.6-11.9-26.5c-9.6-22.1-19.3-44.2-28.5-66.5C167.7,108.1,164.7,103,157.3,105.8z M234.6,102.8
		c3.7,8.4,6.9,15.8,10.1,23.2c10.5,24.1,20.9,48.1,31.4,72.2c0.9,2,1.5,3.4,4.2,2.8c4.9-1.1,9.8-1.8,14.8-2.3c3-0.3,3.1-1.3,2-3.7
		c-4.6-10.2-9-20.5-13.4-30.8c-8.5-19.6-17-39.2-25.5-58.8c-0.6-1.3-1-2.6-3.1-2.6C248.4,102.9,241.8,102.8,234.6,102.8z
		 M326.8,193.8c-0.2-0.8-0.4-1.6-0.7-2.2c-12.7-29.2-25.4-58.3-38.1-87.5c-0.7-1.7-1.7-2.1-3.4-2c-5.5,0.3-11,0.6-16.4,0.6
		c-3,0-3,0.9-1.9,3.2c4.6,10.2,9,20.5,13.5,30.7c8.5,19.4,16.9,38.7,25.4,58.1c0.5,1.2,0.7,2.6,2.7,2.2
		C314.1,195.7,320.4,194.8,326.8,193.8z M174.5,105.1c0.4,1.1,0.8,1.8,1.1,2.6c4.5,10.3,9.1,20.7,13.6,31
		c9.9,22.7,19.9,45.4,29.6,68.3c1.6,3.7,4,3,6.6,2.7c3.2-0.4,2.2-3.1,2-5.1c-0.6-10.1-1.5-20.1-2.1-30.2c-0.2-2.8-0.7-5.3-1.8-7.8
		c-3.2-7.4-6.4-14.8-9.6-22.2c-5.4-12.5-10.9-24.9-16.4-37.4c-0.5-1.2-1-2.1-2.6-2C188.2,105.1,181.5,105.1,174.5,105.1z M141,117.7
		c-0.4,0.1-0.9,0.2-1.3,0.3c1.3,6.2,1.2,12.5,1.5,18.8c0.4,10.3,1.8,20.5,1.8,30.8c0,2.8,0.1,5.9,1.3,8.7
		c5.7,12.9,11.4,25.9,16.8,38.9c1.5,3.7,3.6,4.1,6.9,3.4c4.1-0.8,8.2-1.8,12.4-2c3.5-0.2,3.2-1.5,2.2-3.9
		c-6.1-13.9-12.2-27.9-18.3-41.8c-5.8-13.4-11.7-26.7-17.6-40.1C144.9,126.5,142.9,122.1,141,117.7z M295,101.3
		c0.9,2.1,1.3,3.3,1.8,4.4c4,9.2,8,18.5,12.1,27.7c8.1,18.7,16.3,37.4,24.5,56.1c0.5,1.1,0.5,2.5,2,2.8c5.1,0.9,7.5-1.6,6.3-6.6
		c-3.2-12.8-6.3-25.6-9.5-38.4c-3.7-14.7-6.5-29.7-13.7-43.3c-0.7-1.2-0.8-2.8-3-2.8C308.9,101.4,302.3,101.3,295,101.3z M229.6,110
		c-0.2,0.1-0.5,0.1-0.8,0.2c1.2,17.9,2.3,35.8,3.5,53.7c0.1,2.1,0.2,4.2,1.1,6.2c4.9,11,9.7,22.1,14.4,33.2c0.8,1.8,1.6,2.7,3.9,2.3
		c4.9-0.9,9.8-1.8,14.8-2.2c3.3-0.3,3.2-1.3,2.1-3.9c-7.5-17.1-14.9-34.2-22.4-51.3C240.6,135.4,235.1,122.7,229.6,110z
		 M269.2,332.9c0,12.8,9.7,22.7,22.3,22.7c12.3,0,22.3-9.9,22.4-22.3c0.1-12.5-9.8-22.6-22.4-22.6
		C279.2,310.6,269.2,320.6,269.2,332.9z M163.7,310.8c-12.6,0-22.3,9.6-22.4,22c-0.1,12.7,9.7,22.7,22.2,22.7
		c12.4,0,22.6-10.2,22.5-22.6C186.1,320.6,176.2,310.8,163.7,310.8z M352.6,163.7c0.2-0.1,0.4-0.1,0.6-0.1c0-19.5,0-39,0-58.4
		c0-3.1-2.1-4.6-5.2-4.6c-5.6,0.1-11.2,0.4-16.8,0.4c-2.3,0-2.4,0.8-2.1,2.9c2,11,6.5,21.1,11,31.1
		C344.3,144.5,348.4,154.1,352.6,163.7z M281.2,95.4c0-0.6,0-1.1,0-1.6c11.5,0,22.9,0,34.4,0c2.2,0,3.5-0.2,2.5-3
		c-1.1-3.3-1.8-6.7-2.4-10.1c-0.5-2.5-1.8-2.8-3.9-2.5c-5.3,0.8-5.3,0.7-4.5,5.9c0.1,1,0.3,2,0.3,3c0,2.2-1.1,3.6-3.3,3.8
		c-2.2,0.2-3.6-0.9-4.1-3c-0.4-1.7-0.7-3.4-0.8-5.2c-0.1-1.9-0.7-2.6-2.8-2.2c-16.5,2.6-33,5.2-49.4,7.8c-1.4,0.2-4-0.5-3.1,2.6
		c0.6,2.1-0.2,4.8,3.9,4.6C259.1,95.2,270.2,95.4,281.2,95.4z M268.8,47.3c-0.6,0-2.2,0.2-3.8,0.3c-2.5,0.2-3.2,1.2-2.5,3.8
		c2.2,7.8,4,15.7,6,23.5c0.3,1.2,0.2,2.5,2.2,2.2c8.4-1.4,16.7-2.7,25.1-4c1.9-0.3,2-0.9,1.7-2.7C294.8,56.8,283.6,47.3,268.8,47.3z
		 M14.8,51.9c-3.6-0.1-6.3,2-6.6,5.3c-0.3,3.3,1.9,6,5.8,6.4c14.4,1.4,28.8,2.7,43.1,4c3.7,0.3,6.2-1.9,6.5-5.2
		c0.3-3.4-1.6-5.8-5.5-6.2C43.8,54.7,29.3,53.4,14.8,51.9z M114,106.4c6.9,15.9,13.5,31,20.1,46.1c-0.3-14.9-1.3-29.6-2.2-44.3
		c-0.1-1.9-1.1-1.8-2.5-1.8C124.6,106.4,119.7,106.4,114,106.4z M254.8,52.1c-0.4-0.2-0.8-0.5-1.1-0.7c-1.9,2.2-4,4.4-5.8,6.7
		c-4.4,5.6-6.5,12-6.2,19.2c0.1,2.9,1.2,4.5,4.5,3.9c4.3-0.8,8.7-1.6,13.1-2.2c2-0.3,2.1-1.1,1.7-2.7
		C258.9,68.2,256.8,60.1,254.8,52.1z M204.6,104.3c6,13.8,11.7,27,17.5,40.2c1.2-3.5,0.5-6.7,0.2-10c-0.7-9.3-1.1-18.7-1.5-28
		c-0.1-1.5-0.4-2.2-2.1-2.2C214.2,104.4,209.7,104.3,204.6,104.3z M346,167.8c-0.3,0.1-0.6,0.2-0.9,0.3c1.5,5.8,2.9,11.6,4.3,17.5
		c1.8,7.4-1.4,12.3-9,13.8c-0.8,0.2-2.4-0.5-2.2,1.1c0.2,1.2,0.5,2.8,1.9,3.4c4,1.7,11.9-2.6,12.9-7.2
		C355.3,185.9,350.8,176.8,346,167.8z M166.6,226.2c2,6.1,2,6.1,7.7,5c4-0.7,8.1-1.3,12.1-2.1c1-0.2,3.2,0.2,2.7-1.5
		s-0.4-4.8-3.4-4.4C179.3,224.1,173,225.2,166.6,226.2z M194.4,221.9c2.3,1.9,1.1,5.6,4.5,5.2c6.4-0.8,12.7-2,19.6-3.1
		c-2-1.9-0.6-5.7-4.4-5.2C207.8,219.7,201.6,220.8,194.4,221.9z M223.8,217.4c1.5,5.4,1.6,5.5,4.4,5c6-0.9,12-2,18-3
		c-1.4-5.2-1.4-5.4-4.1-5C236,215.4,229.9,216.4,223.8,217.4z M251.8,213c1.8,1.7,0.7,5.4,4.4,4.9c5.6-0.9,11.3-1.9,16.9-2.8
		c0.6-0.1,1.5,0.2,1.7-0.9c0.3-2.1-2.1-4.5-4.3-4.2C264.5,210.9,258.5,211.9,251.8,213z M280.9,208.5c0.5,3.9,2,5.6,6.2,4.4
		c4.3-1.2,8.8-1.5,13.2-2.3c1.1-0.2,3.3,0.6,2.6-1.8c-0.5-1.7-0.7-3.9-3.8-3.2C293.2,206.8,287.1,207.6,280.9,208.5z M309,204
		c1.5,1.8,0.7,4.8,3.8,4.4c6.4-0.9,12.7-2,19.2-3.1c-1.2-2.2-0.8-5.1-4.4-4.4C321.7,202.1,315.6,203,309,204z M146.1,199.3
		c-0.4,0.7-0.9,1.2-0.9,1.6c0.5,5.7,0.9,11.5,1.6,17.2c0.1,1.4,1.4,2.6,2.7,2.8c1.6,0.3,3.6,0.9,4.9-0.5c1.2-1.3-0.4-2.4-0.8-3.6
		C151.1,211,148.7,205.3,146.1,199.3z M234.7,191.9c-0.2,0-0.5,0.1-0.7,0.1c0.3,4.3,0.6,8.6,0.9,13c0.1,1.3,0.7,2.2,1.9,2.5
		c1.4,0.3,2.9,0.2,3.9-0.7c0.9-0.9-0.2-1.8-0.6-2.7C238.4,200,236.5,196,234.7,191.9z M232.6,96.1c1.3-0.7,3.8,1.2,4.5-1.4
		c0.8-2.9-1-4.6-4.1-4.1c-1.4,0.2-2.7,0.4-4.1,0.6c-1.9,0.2-1.5,1.6-1.4,2.8s0.2,2.2,1.8,2.1C230.4,96.1,231.4,96.1,232.6,96.1z"/>
	<path class="st1" d="M229.4,303.7c-30.4,0-60.9,0-91.3,0c-7.3,0-11-2.7-12.1-8.5c-0.5-2.6,0.2-4.9,1.7-7
		c7.3-10.5,14.3-21.2,22-31.5c8.9-12,21.4-17.7,36.2-19.9c25.4-3.8,50.8-8.2,76.1-12.4c12.6-2.1,25.2-4.2,37.9-6.2
		c4.4-0.7,6.9,0.9,7.4,4.2c0.5,3.2-1.8,5.6-5.9,6.3c-37.5,6.2-75,12.6-112.5,18.5c-11.3,1.8-21.6,5.1-29.1,14.1
		c-6.8,8.1-12.2,17.3-18.2,26c-1.9,2.7-0.3,5.4,3.1,5.7c1.1,0.1,2.2,0,3.4,0c57.6,0,115.2,0,172.9,0c1.2,0,2.5-0.2,3.7,0.1
		c2.7,0.6,4.4,2.3,4.4,5.2c0,2.8-1.5,4.7-4.3,5.2c-1.5,0.3-3,0.2-4.5,0.2C290.1,303.7,259.8,303.7,229.4,303.7z"/>
	<path class="st2" d="M138.6,96.5c-0.6-9.2-1.1-18.4-1.8-27.6c-0.2-2.6,0.6-3.6,3.3-3.6c2.6,0,5.3-0.1,7.6-1c2.8-1,3,0.8,3.3,2.4
		c0.4,2.3,0.4,4.7,0.9,6.9c0.4,2.3,1.3,4.4,4.1,4.4c3,0,3.4-2.1,3.4-4.6c-0.1-3-0.6-5.9-1.3-8.8c-0.4-1.7-0.1-2.1,1.6-2.4
		c10.1-1.4,20.2-2.6,30.2-4.5c8.7-1.7,17.4-2.6,26.1-4.1c4.7-0.8,9.4-1.4,14.1-2.4c2.5-0.6,3.2,1,3.4,3.1c0.8,6.1,1.2,12,1.4,19
		c-0.1,2.3,0.2,3.9-0.1,7c-0.3,2.6-0.4,2.8-2.1,3c-1.9,0.3-3.9,0.6-5.9,0.8c-4.8,0.6-6.9,3-6.9,7.8c0,4.9,0,4.9-4.9,4.9
		c-11.9-0.1-23.9,0.5-35.8,1c-9.7,0.4-19.4-0.1-29,0.7c-3.4-0.1-6.9-0.2-10.4,0.3c-0.4-0.3-0.8-0.6-1.2-0.9
		C138.7,97.4,138.7,97,138.6,96.5z"/>
	<path class="st3" d="M157.3,105.8c7.4-2.8,10.4,2.3,13.3,9.3c9.2,22.3,18.9,44.4,28.5,66.5c3.8,8.9,7.9,17.7,11.9,26.5
		c1.1,2.5,1.3,3.9-2.3,4.1c-4.1,0.2-8.2,1.3-12.4,2c-3,0.5-5.1,0.1-6.6-3.4c-14.6-34.1-29.5-68.2-44.4-102.2
		c-0.9-2.1-0.6-2.9,1.8-2.8C150.1,105.9,153.1,105.8,157.3,105.8z"/>
	<path class="st4" d="M234.6,102.8c7.3,0,13.8,0.1,20.4-0.1c2.1-0.1,2.5,1.2,3.1,2.6c8.5,19.6,17,39.2,25.5,58.8
		c4.5,10.3,8.9,20.6,13.4,30.8c1.1,2.4,1,3.4-2,3.7c-5,0.5-9.9,1.2-14.8,2.3c-2.8,0.6-3.4-0.8-4.2-2.8
		c-10.4-24.1-20.9-48.1-31.4-72.2C241.4,118.7,238.2,111.3,234.6,102.8z"/>
	<path class="st4" d="M326.8,193.8c-6.5,1-12.7,1.9-18.9,3.1c-2,0.4-2.2-1-2.7-2.2c-8.5-19.4-16.9-38.7-25.4-58.1
		c-4.5-10.2-8.9-20.5-13.5-30.7c-1-2.3-1-3.2,1.9-3.2c5.5,0,11-0.3,16.4-0.6c1.7-0.1,2.7,0.3,3.4,2c12.6,29.2,25.4,58.3,38.1,87.5
		C326.4,192.2,326.5,192.9,326.8,193.8z"/>
	<path class="st3" d="M174.5,105.1c7,0,13.7,0.1,20.4-0.1c1.6,0,2.1,0.9,2.6,2c5.4,12.4,10.9,24.9,16.4,37.4
		c3.2,7.4,6.4,14.8,9.6,22.2c1.1,2.5,1.6,5.1,1.8,7.8c0.6,10.1,1.4,20.1,2.1,30.2c0.1,1.9,1.1,4.6-2,5.1c-2.5,0.4-5,1-6.6-2.7
		c-9.7-22.8-19.7-45.5-29.6-68.3c-4.5-10.4-9.1-20.7-13.6-31C175.2,106.9,174.9,106.1,174.5,105.1z"/>
	<path class="st3" d="M141,117.7c1.9,4.4,3.9,8.8,5.8,13.2c5.9,13.4,11.7,26.7,17.6,40.1c6.1,13.9,12.1,27.9,18.3,41.8
		c1.1,2.4,1.3,3.7-2.2,3.9c-4.1,0.2-8.3,1.2-12.4,2c-3.2,0.6-5.4,0.2-6.9-3.4c-5.4-13.1-11.1-26-16.8-38.9c-1.2-2.8-1.3-5.9-1.3-8.7
		c-0.1-10.3-1.4-20.5-1.8-30.8c-0.3-6.2-0.2-12.6-1.5-18.8C140.1,117.9,140.6,117.8,141,117.7z"/>
	<path class="st5" d="M295,101.3c7.3,0,13.9,0.1,20.4-0.1c2.1,0,2.3,1.5,3,2.8c7.2,13.6,10,28.6,13.7,43.3
		c3.2,12.8,6.4,25.6,9.5,38.4c1.2,5-1.2,7.6-6.3,6.6c-1.6-0.3-1.6-1.8-2-2.8c-8.2-18.7-16.3-37.4-24.5-56.1c-4-9.2-8-18.5-12.1-27.7
		C296.3,104.5,295.9,103.4,295,101.3z"/>
	<path class="st5" d="M229.6,110c5.5,12.7,11.1,25.5,16.6,38.2c7.4,17.1,14.8,34.2,22.4,51.3c1.1,2.6,1.1,3.6-2.1,3.9
		c-5,0.4-9.9,1.2-14.8,2.2c-2.2,0.4-3.1-0.4-3.9-2.3c-4.7-11.1-9.5-22.2-14.4-33.2c-0.9-2-0.9-4.1-1.1-6.2
		c-1.2-17.9-2.4-35.8-3.5-53.7C229.1,110.1,229.3,110,229.6,110z"/>
	<path class="st6" d="M269.2,332.9c0-12.4,10-22.3,22.3-22.2c12.6,0.1,22.5,10.1,22.4,22.6c-0.1,12.4-10.1,22.3-22.4,22.3
		C278.9,355.6,269.2,345.7,269.2,332.9z M291.3,320.4c-6.9,0-12.5,5.7-12.5,12.7c0,7.2,5.7,12.9,12.8,12.8
		c6.8-0.1,12.6-5.9,12.7-12.7C304.4,326.3,298.4,320.4,291.3,320.4z"/>
	<path class="st6" d="M163.7,310.8c12.5,0,22.3,9.8,22.4,22.2c0.1,12.4-10.1,22.6-22.5,22.6c-12.5,0-22.3-10-22.2-22.7
		C141.4,320.4,151.2,310.8,163.7,310.8z M163.8,345.9c7,0,12.7-5.9,12.6-13c-0.1-7.1-5.8-12.6-13-12.5c-7,0.1-12.4,5.7-12.4,12.7
		C151,340.3,156.7,345.9,163.8,345.9z"/>
	<path class="st7" d="M281.2,95.4c-11.1,0-22.2-0.2-33.3,0.1c-4.1,0.1-3.3-2.5-3.9-4.6c-0.9-3.1,1.7-2.4,3.1-2.6
		c16.5-2.6,33-5.2,49.4-7.8c2-0.3,2.7,0.3,2.8,2.2c0.1,1.7,0.4,3.5,0.8,5.2c0.5,2.1,1.9,3.2,4.1,3s3.3-1.6,3.3-3.8c0-1-0.1-2-0.3-3
		c-0.8-5.2-0.8-5.1,4.5-5.9c2.2-0.3,3.5,0,3.9,2.5c0.6,3.4,1.3,6.9,2.4,10.1c1,2.9-0.3,3.1-2.5,3c-11.5-0.1-22.9,0-34.4,0
		C281.2,94.4,281.2,94.9,281.2,95.4z"/>
	<path class="st7" d="M14.8,51.9c14.5,1.4,29,2.8,43.5,4.3c3.9,0.4,5.8,2.8,5.5,6.2c-0.3,3.3-2.8,5.5-6.5,5.2
		c-14.4-1.2-28.8-2.6-43.1-4c-3.9-0.4-6.2-3.1-5.8-6.4C8.5,54,11.2,51.9,14.8,51.9z"/>
	<path class="st2" d="M254.8,52.1c2.1,8,4.1,16.1,6.2,24.2c0.4,1.6,0.3,2.5-1.7,2.7c-4.4,0.6-8.7,1.3-13.1,2.2
		c-3.3,0.7-4.4-1-4.5-3.9c-0.3-7.2,1.7-13.6,6.2-19.2c1.9-2.3,3.9-4.5,5.8-6.7C254,51.6,254.4,51.8,254.8,52.1z"/>
	<path class="st3" d="M204.6,104.3c5.1,0,9.6,0.1,14.1,0c1.7,0,2,0.7,2.1,2.2c0.4,9.3,0.8,18.7,1.5,28c0.3,3.3,0.9,6.5-0.2,10
		C216.3,131.3,210.6,118.2,204.6,104.3z"/>
	<path class="st3" d="M146.1,199.3c2.6,6.1,5,11.7,7.4,17.4c0.5,1.1,2,2.3,0.8,3.6c-1.3,1.4-3.3,0.8-4.9,0.5
		c-1.3-0.2-2.5-1.4-2.7-2.8c-0.6-5.7-1.1-11.4-1.6-17.2C145.2,200.5,145.7,200,146.1,199.3z"/>
	<path class="st8" d="M234.7,191.9c1.8,4.1,3.6,8.1,5.3,12.1c0.4,0.8,1.5,1.8,0.6,2.7c-1,0.9-2.5,1-3.9,0.7
		c-1.2-0.3-1.8-1.2-1.9-2.5c-0.3-4.3-0.6-8.6-0.9-13C234.2,192,234.5,191.9,234.7,191.9z"/>
	<path class="st8" d="M232.6,96.1c-1.2,0-2.2-0.1-3.2,0c-1.6,0.1-1.8-0.9-1.8-2.1c-0.1-1.2-0.5-2.6,1.4-2.8c1.4-0.2,2.7-0.4,4.1-0.6
		c3-0.4,4.9,1.2,4.1,4.1C236.3,97.4,233.9,95.4,232.6,96.1z"/>
	<path class="st9" d="M139.9,98.8c3.4-0.5,6.9-0.4,10.4-0.3C146.9,99.6,143.4,99.1,139.9,98.8z"/>
	<path class="st9" d="M138.6,96.5c0,0.4,0.1,0.9,0.1,1.3C138.2,97.5,138.3,97,138.6,96.5z"/>
	<path class="st9" d="M291.3,320.4c7,0,13,5.9,13,12.7c0,6.8-5.9,12.6-12.7,12.7c-7.1,0.1-12.8-5.6-12.8-12.8
		C278.8,326.1,284.4,320.5,291.3,320.4z M291.4,327.3c-3.5,0-5.7,2.4-5.6,6c0.1,3.4,2.4,5.6,5.7,5.5c3.4,0,5.8-2.5,5.7-6
		C297.1,329.6,294.7,327.3,291.4,327.3z"/>
	<path class="st9" d="M163.8,345.9c-7.1,0-12.7-5.5-12.8-12.7c-0.1-7,5.4-12.6,12.4-12.7c7.2-0.1,12.9,5.4,13,12.5
		C176.5,339.9,170.8,345.8,163.8,345.9z M163.6,327.4c-3.3,0-5.6,2.4-5.7,5.6c-0.1,3.3,2.5,6,5.8,6c3.2,0,5.7-2.5,5.7-5.6
		C169.5,330,166.9,327.3,163.6,327.4z"/>
	<path class="st10" d="M291.4,327.3c3.3,0,5.7,2.3,5.8,5.5c0.1,3.5-2.2,6-5.7,6c-3.3,0-5.6-2.2-5.7-5.5
		C285.7,329.8,287.9,327.4,291.4,327.3z"/>
	<path class="st10" d="M163.6,327.4c3.3,0,5.9,2.6,5.8,5.9c-0.1,3.2-2.6,5.6-5.7,5.6c-3.3,0-5.9-2.6-5.8-6
		C158,329.7,160.4,327.4,163.6,327.4z"/>
</g>
</svg>
